<?xml version="1.0" encoding="utf-8"?>
<!-- Generator: Adobe Illustrator 22.1.0, SVG Export Plug-In . SVG Version: 6.00 Build 0)  -->
<svg version="1.1" id="图层_2" xmlns="http://www.w3.org/2000/svg" xmlns:xlink="http://www.w3.org/1999/xlink" x="0px" y="0px"
	 viewBox="0 0 512 512" style="enable-background:new 0 0 512 512;" xml:space="preserve">
<style type="text/css">
	.st0{fill:#3498DB;}
</style>
<path class="st0" d="M26,26v460h460V26H26z M226.3,332.2c10.5,0,19.1,8.5,19.1,19.1c0,10.5-8.5,19.1-19.1,19.1H93.3
	c-1.7,0-3.3-0.3-4.9-0.7c-3.7,0-7.4-1.8-10.2-5.5c-5.6-7.4-5.6-19.5,0-26.9l118.3-157.3H93.3c-10.5,0-19.1-8.5-19.1-19.1
	c0-10.5,8.5-19.1,19.1-19.1h133.1c1,0,1.9,0.1,2.8,0.3c4.3-0.7,8.7,1,12,5.3c1.8,2.4,2.8,5.3,3.4,8.4c0.4,1.6,0.8,3.3,0.8,5
	c0,1.7-0.3,3.4-0.7,5c-0.6,3.1-1.6,6.1-3.5,8.5l-118.8,158H226.3z M433.4,370.3H310.5h0c-10.5,0-19.1-8.5-19.1-19.1V160.7
	c0-10.5,8.6-19.1,19.1-19.1h0c10.5,0,19.1,8.6,19.1,19.1v171.5h103.9c10.5,0,19.1,8.5,19.1,19.1
	C452.5,361.8,443.9,370.3,433.4,370.3z"/>
</svg>
